<?xml version="1.0" encoding="UTF-8" standalone="no"?>
<svg
   width="18"
   height="18"
   fill="currentColor"
   class="bi bi-cash"
   viewBox="0 0 18 18"
   version="1.1"
   id="svg2"
   sodipodi:docname="cash.svg"
   inkscape:version="1.3.2 (091e20e, 2023-11-25)"
   xmlns:inkscape="http://www.inkscape.org/namespaces/inkscape"
   xmlns:sodipodi="http://sodipodi.sourceforge.net/DTD/sodipodi-0.dtd"
   xmlns="http://www.w3.org/2000/svg"
   xmlns:svg="http://www.w3.org/2000/svg">
  <defs
     id="defs2" />
  <sodipodi:namedview
     id="namedview2"
     pagecolor="#505050"
     bordercolor="#eeeeee"
     borderopacity="1"
     inkscape:showpageshadow="0"
     inkscape:pageopacity="0"
     inkscape:pagecheckerboard="0"
     inkscape:deskcolor="#505050"
     inkscape:zoom="48.9375"
     inkscape:cx="7.9897829"
     inkscape:cy="8"
     inkscape:window-width="1920"
     inkscape:window-height="967"
     inkscape:window-x="0"
     inkscape:window-y="32"
     inkscape:window-maximized="1"
     inkscape:current-layer="svg2" />
  <path
     d="M 9,11 A 2,2 0 1 0 9,7 2,2 0 0 0 9,11"
     id="path1" />
  <path
     d="M 1,5 A 1,1 0 0 1 2,4 h 14 a 1,1 0 0 1 1,1 v 8 a 1,1 0 0 1 -1,1 H 2 A 1,1 0 0 1 1,13 Z M 4,5 A 2,2 0 0 1 2,7 v 4 a 2,2 0 0 1 2,2 h 10 a 2,2 0 0 1 2,-2 V 7 A 2,2 0 0 1 14,5 Z"
     id="path2" />
</svg>
