<?xml version="1.0" encoding="UTF-8" standalone="no"?>
<!-- Created with Inkscape (http://www.inkscape.org/) -->

<svg
   width="48"
   height="48"
   viewBox="0 0 12.7 12.7"
   version="1.1"
   id="svg1"
   xml:space="preserve"
   inkscape:version="1.3.2 (091e20e, 2023-11-25, custom)"
   sodipodi:docname="FM_Logo.svg"
   xmlns:inkscape="http://www.inkscape.org/namespaces/inkscape"
   xmlns:sodipodi="http://sodipodi.sourceforge.net/DTD/sodipodi-0.dtd"
   xmlns="http://www.w3.org/2000/svg"
   xmlns:svg="http://www.w3.org/2000/svg"><sodipodi:namedview
     id="namedview1"
     pagecolor="#ffffff"
     bordercolor="#000000"
     borderopacity="0.25"
     inkscape:showpageshadow="2"
     inkscape:pageopacity="0.0"
     inkscape:pagecheckerboard="0"
     inkscape:deskcolor="#d1d1d1"
     inkscape:document-units="mm"
     inkscape:zoom="3.5628738"
     inkscape:cx="83.219339"
     inkscape:cy="-69.887404"
     inkscape:window-width="2736"
     inkscape:window-height="1714"
     inkscape:window-x="-12"
     inkscape:window-y="-12"
     inkscape:window-maximized="1"
     inkscape:current-layer="layer1" /><defs
     id="defs1" /><g
     inkscape:label="Ebene 1"
     inkscape:groupmode="layer"
     id="layer1"><rect
       style="fill:#5e81ac;stroke-width:0.264583;fill-opacity:1"
       id="rect1"
       width="12.7"
       height="12.7"
       x="0"
       y="0"
       ry="2.4285495" /><g
       style="fill:#88c0d0;fill-opacity:1"
       id="g2"
       transform="matrix(0.5986383,0,0,0.5986383,1.5608936,2.1347447)"><path
         fill-rule="evenodd"
         d="m 11,15 a 4,4 0 1 0 0,-8 4,4 0 0 0 0,8 m 5,-4 a 5,5 0 1 1 -10,0 5,5 0 0 1 10,0"
         id="path1"
         style="fill:#88c0d0;fill-opacity:1" /><path
         d="m 9.438,11.944 c 0.047,0.596 0.518,1.06 1.363,1.116 v 0.44 h 0.375 v -0.443 c 0.875,-0.061 1.386,-0.529 1.386,-1.207 0,-0.618 -0.39,-0.936 -1.09,-1.1 l -0.296,-0.07 v -1.2 c 0.376,0.043 0.614,0.248 0.671,0.532 h 0.658 C 12.458,9.437 11.965,8.988 11.176,8.939 V 8.5 h -0.375 v 0.45 c -0.747,0.073 -1.255,0.522 -1.255,1.158 0,0.562 0.378,0.92 1.007,1.066 l 0.248,0.061 v 1.272 c -0.384,-0.058 -0.639,-0.27 -0.696,-0.563 H 9.437 Z m 1.36,-1.354 c -0.369,-0.085 -0.569,-0.26 -0.569,-0.522 0,-0.294 0.216,-0.514 0.572,-0.578 v 1.1 z m 0.432,0.746 c 0.449,0.104 0.655,0.272 0.655,0.569 0,0.339 -0.257,0.571 -0.709,0.614 v -1.195 z"
         id="path2"
         style="fill:#88c0d0;fill-opacity:1" /><path
         d="M 1,0 A 1,1 0 0 0 0,1 v 8 a 1,1 0 0 0 1,1 H 5.083 Q 5.171,9.483 5.341,9 H 3 A 2,2 0 0 0 1,7 V 3 A 2,2 0 0 0 3,1 h 10 a 2,2 0 0 0 2,2 v 3.528 c 0.38,0.34 0.717,0.728 1,1.154 V 1 A 1,1 0 0 0 15,0 Z"
         id="path3"
         style="fill:#88c0d0;fill-opacity:1" /><path
         d="M 9.998,5.083 10,5 A 2,2 0 1 0 6.868,6.65 6,6 0 0 1 9.998,5.083"
         id="path4"
         style="fill:#88c0d0;fill-opacity:1" /></g></g></svg>
