<?xml version="1.0" encoding="UTF-8" standalone="no"?>
<svg
   width="18"
   height="18"
   fill="currentColor"
   class="bi bi-piggy-bank-fill"
   viewBox="0 0 18 18"
   version="1.1"
   id="svg1"
   sodipodi:docname="piggy-bank-fill.svg"
   inkscape:version="1.3.2 (091e20e, 2023-11-25)"
   xmlns:inkscape="http://www.inkscape.org/namespaces/inkscape"
   xmlns:sodipodi="http://sodipodi.sourceforge.net/DTD/sodipodi-0.dtd"
   xmlns="http://www.w3.org/2000/svg"
   xmlns:svg="http://www.w3.org/2000/svg">
  <defs
     id="defs1" />
  <sodipodi:namedview
     id="namedview1"
     pagecolor="#505050"
     bordercolor="#eeeeee"
     borderopacity="1"
     inkscape:showpageshadow="0"
     inkscape:pageopacity="0"
     inkscape:pagecheckerboard="0"
     inkscape:deskcolor="#505050"
     inkscape:zoom="48.9375"
     inkscape:cx="7.9897829"
     inkscape:cy="8"
     inkscape:window-width="1920"
     inkscape:window-height="967"
     inkscape:window-x="0"
     inkscape:window-y="32"
     inkscape:window-maximized="1"
     inkscape:current-layer="svg1" />
  <path
     d="m 8.9639032,2.527 c -2.977,0 -5.571,1.704 -6.32,4.125 h -0.55 a 1,1 0 0 0 -0.984,1.172 l 0.254,1.46 a 1.5,1.5 0 0 0 1.478,1.243 h 0.263 c 0.3,0.513 0.688,0.978 1.145,1.382 l -0.729,2.477 a 0.5,0.5 0 0 0 0.48,0.641 h 2 a 0.5,0.5 0 0 0 0.471,-0.332 l 0.482,-1.351 c 0.635,0.173 1.31,0.267 2.011,0.267 0.707,0 1.3879998,-0.095 2.0279998,-0.272 l 0.543,1.372 a 0.5,0.5 0 0 0 0.465,0.316 h 2 a 0.5,0.5 0 0 0 0.478,-0.645 l -0.761,-2.506 c 1.092,-0.981 1.782,-2.317 1.782,-3.807 q 0,-0.218 -0.02,-0.431 c 0.261,-0.11 0.508,-0.266 0.705,-0.444 0.315,0.306 0.815,0.306 0.815,-0.417 0,0.223 -0.5,0.223 -0.461,-0.026 a 1,1 0 0 0 0.09,-0.255 0.7,0.7 0 0 0 -0.202,-0.645 0.58,0.58 0 0 0 -0.707,-0.098 0.74,0.74 0 0 0 -0.375,0.562 c -0.024,0.243 0.082,0.48 0.32,0.654 a 2,2 0 0 1 -0.259,0.153 c -0.534,-2.664 -3.284,-4.595 -6.4419998,-4.595 m 7.1729998,3.876 a 0.6,0.6 0 0 1 -0.098,0.21 l -0.044,-0.025 c -0.146,-0.09 -0.157,-0.175 -0.152,-0.223 a 0.24,0.24 0 0 1 0.117,-0.173 c 0.049,-0.027 0.08,-0.021 0.113,0.012 a 0.2,0.2 0 0 1 0.064,0.199 M 7.1379032,5.753 a 0.5,0.5 0 1 1 -0.276,-0.96 7.6,7.6 0 0 1 2.102,-0.293 c 0.763,0 1.4969998,0.11 2.1799998,0.315 a 0.50003325,0.50003325 0 1 1 -0.287,0.958 A 6.6,6.6 0 0 0 8.9639032,5.5 c -0.64,0 -1.255,0.09 -1.826,0.254 z m -1.138,1.497 a 0.75,0.75 0 1 1 -1.5,0 0.75,0.75 0 0 1 1.5,0"
     id="path1" />
</svg>
