<?xml version="1.0" encoding="UTF-8" standalone="no"?>
<svg
   width="18"
   height="18"
   fill="currentColor"
   class="bi bi-filter-circle"
   viewBox="0 0 18 18"
   version="1.1"
   id="svg2"
   sodipodi:docname="filter-circle.svg"
   inkscape:version="1.3.2 (091e20e, 2023-11-25)"
   xmlns:inkscape="http://www.inkscape.org/namespaces/inkscape"
   xmlns:sodipodi="http://sodipodi.sourceforge.net/DTD/sodipodi-0.dtd"
   xmlns="http://www.w3.org/2000/svg"
   xmlns:svg="http://www.w3.org/2000/svg">
  <defs
     id="defs2" />
  <sodipodi:namedview
     id="namedview2"
     pagecolor="#505050"
     bordercolor="#eeeeee"
     borderopacity="1"
     inkscape:showpageshadow="0"
     inkscape:pageopacity="0"
     inkscape:pagecheckerboard="0"
     inkscape:deskcolor="#505050"
     inkscape:zoom="34.604038"
     inkscape:cx="3.3233116"
     inkscape:cy="9.8109937"
     inkscape:window-width="1920"
     inkscape:window-height="967"
     inkscape:window-x="0"
     inkscape:window-y="32"
     inkscape:window-maximized="1"
     inkscape:current-layer="svg2" />
  <path
     d="M 9,16 A 7,7 0 1 1 9,2 7,7 0 0 1 9,16 m 0,1 A 8,8 0 1 0 9,1 8,8 0 0 0 9,17"
     id="path1" />
  <path
     d="M 8,12.5 A 0.5,0.5 0 0 1 8.5,12 h 1 a 0.5,0.5 0 0 1 0,1 h -1 A 0.5,0.5 0 0 1 8,12.5 M 6,9.5 A 0.5,0.5 0 0 1 6.5,9 h 5 a 0.5,0.5 0 0 1 0,1 h -5 A 0.5,0.5 0 0 1 6,9.5 M 4,6.5 A 0.5,0.5 0 0 1 4.5,6 h 9 a 0.5,0.5 0 0 1 0,1 h -9 A 0.5,0.5 0 0 1 4,6.5"
     id="path2" />
</svg>
