<?xml version="1.0" encoding="UTF-8" standalone="no"?>
<svg
   width="18"
   height="18"
   fill="currentColor"
   class="bi bi-folder-fill"
   viewBox="0 0 18 18"
   version="1.1"
   id="svg1"
   sodipodi:docname="folder-fill.svg"
   inkscape:version="1.3.2 (091e20e, 2023-11-25)"
   xmlns:inkscape="http://www.inkscape.org/namespaces/inkscape"
   xmlns:sodipodi="http://sodipodi.sourceforge.net/DTD/sodipodi-0.dtd"
   xmlns="http://www.w3.org/2000/svg"
   xmlns:svg="http://www.w3.org/2000/svg">
  <defs
     id="defs1" />
  <sodipodi:namedview
     id="namedview1"
     pagecolor="#505050"
     bordercolor="#eeeeee"
     borderopacity="1"
     inkscape:showpageshadow="0"
     inkscape:pageopacity="0"
     inkscape:pagecheckerboard="0"
     inkscape:deskcolor="#505050"
     inkscape:zoom="48.9375"
     inkscape:cx="7.9897829"
     inkscape:cy="8"
     inkscape:window-width="1920"
     inkscape:window-height="967"
     inkscape:window-x="0"
     inkscape:window-y="32"
     inkscape:window-maximized="1"
     inkscape:current-layer="svg1" />
  <path
     d="m 10.828082,4 h 3.982 a 2,2 0 0 1 1.992,2.181 l -0.637,7 A 2,2 0 0 1 14.174082,15 H 3.8250817 a 2,2 0 0 1 -1.991,-1.819 l -0.637,-7 a 2,2 0 0 1 0.342,-1.31 L 1.5000817,4 a 2,2 0 0 1 2,-2 h 3.672 a 2,2 0 0 1 1.414,0.586 l 0.828,0.828 A 2,2 0 0 0 10.828082,4 M 2.5060817,4.12 q 0.322,-0.119 0.684,-0.12 h 5.396 l -0.707,-0.707 A 1,1 0 0 0 7.1720817,3 h -3.672 a 1,1 0 0 0 -1,0.981 z"
     id="path1" />
</svg>
