<?xml version="1.0" encoding="UTF-8" standalone="no"?>
<svg
   width="18"
   height="18"
   fill="currentColor"
   class="bi bi-gear-fill"
   viewBox="0 0 18 18"
   version="1.1"
   id="svg1"
   sodipodi:docname="gear-fill.svg"
   inkscape:version="1.3.2 (091e20e, 2023-11-25)"
   xmlns:inkscape="http://www.inkscape.org/namespaces/inkscape"
   xmlns:sodipodi="http://sodipodi.sourceforge.net/DTD/sodipodi-0.dtd"
   xmlns="http://www.w3.org/2000/svg"
   xmlns:svg="http://www.w3.org/2000/svg">
  <defs
     id="defs1" />
  <sodipodi:namedview
     id="namedview1"
     pagecolor="#505050"
     bordercolor="#eeeeee"
     borderopacity="1"
     inkscape:showpageshadow="0"
     inkscape:pageopacity="0"
     inkscape:pagecheckerboard="0"
     inkscape:deskcolor="#505050"
     inkscape:zoom="48.9375"
     inkscape:cx="7.9897829"
     inkscape:cy="8"
     inkscape:window-width="1920"
     inkscape:window-height="967"
     inkscape:window-x="0"
     inkscape:window-y="32"
     inkscape:window-maximized="1"
     inkscape:current-layer="svg1" />
  <path
     d="m 10.405,2.05 c -0.413,-1.4 -2.397,-1.4 -2.81,0 l -0.1,0.34 A 1.464,1.464 0 0 1 5.39,3.262 L 5.08,3.092 C 3.797,2.394 2.394,3.797 3.093,5.079 L 3.262,5.39 C 3.708,6.21 3.285,7.231 2.39,7.495 l -0.34,0.1 c -1.4,0.413 -1.4,2.397 0,2.81 l 0.34,0.1 a 1.464,1.464 0 0 1 0.872,2.105 l -0.17,0.31 c -0.698,1.283 0.705,2.686 1.987,1.987 L 5.39,14.738 a 1.464,1.464 0 0 1 2.105,0.872 l 0.1,0.34 c 0.413,1.4 2.397,1.4 2.81,0 l 0.1,-0.34 a 1.464,1.464 0 0 1 2.105,-0.872 l 0.31,0.17 c 1.283,0.698 2.686,-0.705 1.987,-1.987 L 14.738,12.61 a 1.464,1.464 0 0 1 0.872,-2.105 l 0.34,-0.1 c 1.4,-0.413 1.4,-2.397 0,-2.81 l -0.34,-0.1 A 1.464,1.464 0 0 1 14.738,5.39 l 0.17,-0.31 C 15.606,3.797 14.203,2.394 12.921,3.093 L 12.61,3.262 A 1.464,1.464 0 0 1 10.505,2.39 Z M 9,11.93 a 2.93,2.93 0 1 1 0,-5.86 2.929,2.929 0 0 1 0,5.858 z"
     id="path1" />
</svg>
