<?xml version="1.0" encoding="UTF-8" standalone="no"?>
<svg
   width="18"
   height="18"
   fill="currentColor"
   class="bi bi-trash-fill"
   viewBox="0 0 18 18"
   version="1.1"
   id="svg1"
   sodipodi:docname="trash-fill.svg"
   inkscape:version="1.4 (e7c3feb100, 2024-10-09)"
   xmlns:inkscape="http://www.inkscape.org/namespaces/inkscape"
   xmlns:sodipodi="http://sodipodi.sourceforge.net/DTD/sodipodi-0.dtd"
   xmlns="http://www.w3.org/2000/svg"
   xmlns:svg="http://www.w3.org/2000/svg">
  <defs
     id="defs1" />
  <sodipodi:namedview
     id="namedview1"
     pagecolor="#ffffff"
     bordercolor="#000000"
     borderopacity="0.25"
     inkscape:showpageshadow="2"
     inkscape:pageopacity="0.0"
     inkscape:pagecheckerboard="0"
     inkscape:deskcolor="#d1d1d1"
     inkscape:zoom="22.8125"
     inkscape:cx="11.550685"
     inkscape:cy="10.213699"
     inkscape:window-width="1920"
     inkscape:window-height="976"
     inkscape:window-x="0"
     inkscape:window-y="0"
     inkscape:window-maximized="1"
     inkscape:current-layer="svg1" />
  <path
     d="m 3.5,2.4 a 1,1 0 0 0 -1,1 v 1 a 1,1 0 0 0 1,1 H 4 v 9 a 2,2 0 0 0 2,2 h 6 a 2,2 0 0 0 2,-2 v -9 h 0.5 a 1,1 0 0 0 1,-1 v -1 a 1,1 0 0 0 -1,-1 H 11 a 1,1 0 0 0 -1,-1 H 8 a 1,1 0 0 0 -1,1 z m 3,4 A 0.5,0.5 0 0 1 7,6.9 v 7 a 0.5,0.5 0 0 1 -1,0 v -7 A 0.5,0.5 0 0 1 6.5,6.4 m 2.5,0 a 0.5,0.5 0 0 1 0.5,0.5 v 7 a 0.5,0.5 0 0 1 -1,0 v -7 A 0.5,0.5 0 0 1 9,6.4 m 3,0.5 v 7 a 0.5,0.5 0 0 1 -1,0 v -7 a 0.5,0.5 0 0 1 1,0"
     id="path1" />
</svg>
