<?xml version="1.0" encoding="UTF-8" standalone="no"?>
<svg
   width="18"
   height="18"
   fill="currentColor"
   class="bi bi-bank2"
   viewBox="0 0 18 18"
   version="1.1"
   id="svg1"
   sodipodi:docname="bank2.svg"
   inkscape:version="1.3.2 (091e20e, 2023-11-25)"
   xmlns:inkscape="http://www.inkscape.org/namespaces/inkscape"
   xmlns:sodipodi="http://sodipodi.sourceforge.net/DTD/sodipodi-0.dtd"
   xmlns="http://www.w3.org/2000/svg"
   xmlns:svg="http://www.w3.org/2000/svg">
  <defs
     id="defs1" />
  <sodipodi:namedview
     id="namedview1"
     pagecolor="#505050"
     bordercolor="#eeeeee"
     borderopacity="1"
     inkscape:showpageshadow="0"
     inkscape:pageopacity="0"
     inkscape:pagecheckerboard="0"
     inkscape:deskcolor="#505050"
     inkscape:zoom="48.9375"
     inkscape:cx="7.9897829"
     inkscape:cy="8"
     inkscape:window-width="1920"
     inkscape:window-height="967"
     inkscape:window-x="0"
     inkscape:window-y="32"
     inkscape:window-maximized="1"
     inkscape:current-layer="svg1" />
  <path
     d="m 9.277,1.0837417 a 0.5,0.5 0 0 0 -0.554,0 l -7.5,5 a 0.5,0.5 0 0 0 0.277,0.916 H 3.375 V 13.999742 H 2.5 a 0.5,0.5 0 0 0 0,1 h 13 a 0.5,0.5 0 1 0 0,-1 H 14.625 V 6.9997417 H 16.5 a 0.5,0.5 0 0 0 0.277,-0.916 z m 4.098,5.916 v 7.0000003 h -1.25 V 6.9997417 Z m -2.5,0 V 13.999742 H 9.625 V 6.9997417 Z m -2.5,0 V 13.999742 H 7.125 V 6.9997417 Z m -2.5,0 V 13.999742 H 4.625 V 6.9997417 Z m 3.125,-2 a 1,1 0 1 1 0,-2 1,1 0 0 1 0,2 M 1.5,15.999742 a 0.5,0.5 0 0 0 0,1 h 15 a 0.5,0.5 0 1 0 0,-1 z"
     id="path1" />
</svg>
