<?xml version="1.0" encoding="UTF-8" standalone="no"?>
<svg
   width="18"
   height="18"
   fill="currentColor"
   class="bi bi-book-fill"
   viewBox="0 0 18 18"
   version="1.1"
   id="svg1"
   sodipodi:docname="book-fill.svg"
   inkscape:version="1.3.2 (091e20e, 2023-11-25)"
   xmlns:inkscape="http://www.inkscape.org/namespaces/inkscape"
   xmlns:sodipodi="http://sodipodi.sourceforge.net/DTD/sodipodi-0.dtd"
   xmlns="http://www.w3.org/2000/svg"
   xmlns:svg="http://www.w3.org/2000/svg">
  <defs
     id="defs1" />
  <sodipodi:namedview
     id="namedview1"
     pagecolor="#505050"
     bordercolor="#eeeeee"
     borderopacity="1"
     inkscape:showpageshadow="0"
     inkscape:pageopacity="0"
     inkscape:pagecheckerboard="0"
     inkscape:deskcolor="#505050"
     inkscape:zoom="45.125"
     inkscape:cx="8"
     inkscape:cy="8"
     inkscape:window-width="1920"
     inkscape:window-height="968"
     inkscape:window-x="0"
     inkscape:window-y="0"
     inkscape:window-maximized="1"
     inkscape:current-layer="svg1" />
  <path
     d="m 9,2.6871288 c -0.985,-0.847 -2.413,-0.9729999 -3.713,-0.843 -1.514,0.153 -3.042,0.672 -3.994,1.105 A 0.5,0.5 0 0 0 1,3.4041288 V 14.404129 a 0.5,0.5 0 0 0 0.707,0.455 c 0.882,-0.4 2.303,-0.881 3.68,-1.02 1.409,-0.142 2.59,0.087 3.223,0.877 a 0.5,0.5 0 0 0 0.78,0 c 0.633,-0.79 1.814,-1.019 3.222,-0.877 1.378,0.139 2.8,0.62 3.681,1.02 A 0.5,0.5 0 0 0 17,14.404129 V 3.4041288 a 0.5,0.5 0 0 0 -0.293,-0.455 c -0.952,-0.433 -2.48,-0.952 -3.994,-1.105 -1.3,-0.1309999 -2.728,-0.004 -3.713,0.843"
     id="path1" />
</svg>
