<?xml version="1.0" encoding="UTF-8" standalone="no"?>
<svg
   width="18"
   height="18"
   fill="currentColor"
   class="bi bi-filter"
   viewBox="0 0 18 18"
   version="1.1"
   id="svg1"
   sodipodi:docname="filter.svg"
   inkscape:version="1.3.2 (091e20e, 2023-11-25)"
   xmlns:inkscape="http://www.inkscape.org/namespaces/inkscape"
   xmlns:sodipodi="http://sodipodi.sourceforge.net/DTD/sodipodi-0.dtd"
   xmlns="http://www.w3.org/2000/svg"
   xmlns:svg="http://www.w3.org/2000/svg">
  <defs
     id="defs1" />
  <sodipodi:namedview
     id="namedview1"
     pagecolor="#505050"
     bordercolor="#eeeeee"
     borderopacity="1"
     inkscape:showpageshadow="0"
     inkscape:pageopacity="0"
     inkscape:pagecheckerboard="0"
     inkscape:deskcolor="#505050"
     inkscape:zoom="34.604038"
     inkscape:cx="7.8314559"
     inkscape:cy="9.117433"
     inkscape:window-width="1920"
     inkscape:window-height="967"
     inkscape:window-x="0"
     inkscape:window-y="32"
     inkscape:window-maximized="1"
     inkscape:current-layer="svg1" />
  <path
     d="M 7,11.5 A 0.5,0.5 0 0 1 7.5,11 h 3 a 0.5,0.5 0 0 1 0,1 h -3 A 0.5,0.5 0 0 1 7,11.5 M 5,8.5 A 0.5,0.5 0 0 1 5.5,8 h 7 a 0.5,0.5 0 0 1 0,1 h -7 A 0.5,0.5 0 0 1 5,8.5 M 3,5.5 A 0.5,0.5 0 0 1 3.5,5 h 11 a 0.5,0.5 0 0 1 0,1 H 3.5 A 0.5,0.5 0 0 1 3,5.5"
     id="path1" />
</svg>
