<?xml version="1.0" encoding="UTF-8" standalone="no"?>
<svg
   width="18"
   height="18"
   fill="currentColor"
   class="bi bi-fullscreen-exit"
   viewBox="0 0 18 18"
   version="1.1"
   id="svg1"
   sodipodi:docname="fullscreen-exit.svg"
   inkscape:version="1.4 (e7c3feb100, 2024-10-09)"
   xmlns:inkscape="http://www.inkscape.org/namespaces/inkscape"
   xmlns:sodipodi="http://sodipodi.sourceforge.net/DTD/sodipodi-0.dtd"
   xmlns="http://www.w3.org/2000/svg"
   xmlns:svg="http://www.w3.org/2000/svg">
  <defs
     id="defs1" />
  <sodipodi:namedview
     id="namedview1"
     pagecolor="#ffffff"
     bordercolor="#000000"
     borderopacity="0.25"
     inkscape:showpageshadow="2"
     inkscape:pageopacity="0.0"
     inkscape:pagecheckerboard="0"
     inkscape:deskcolor="#d1d1d1"
     inkscape:zoom="45.625"
     inkscape:cx="8.0109589"
     inkscape:cy="8"
     inkscape:window-width="1920"
     inkscape:window-height="976"
     inkscape:window-x="0"
     inkscape:window-y="0"
     inkscape:window-maximized="1"
     inkscape:current-layer="svg1" />
  <path
     d="M 6.5,1 A 0.5,0.5 0 0 1 7,1.5 v 4 A 1.5,1.5 0 0 1 5.5,7 h -4 a 0.5,0.5 0 0 1 0,-1 h 4 A 0.5,0.5 0 0 0 6,5.5 v -4 A 0.5,0.5 0 0 1 6.5,1 m 5,0 A 0.5,0.5 0 0 1 12,1.5 v 4 A 0.5,0.5 0 0 0 12.5,6 h 4 a 0.5,0.5 0 0 1 0,1 h -4 A 1.5,1.5 0 0 1 11,5.5 v -4 A 0.5,0.5 0 0 1 11.5,1 M 1,11.5 A 0.5,0.5 0 0 1 1.5,11 h 4 A 1.5,1.5 0 0 1 7,12.5 v 4 a 0.5,0.5 0 0 1 -1,0 v -4 A 0.5,0.5 0 0 0 5.5,12 h -4 A 0.5,0.5 0 0 1 1,11.5 m 10,1 A 1.5,1.5 0 0 1 12.5,11 h 4 a 0.5,0.5 0 0 1 0,1 h -4 A 0.5,0.5 0 0 0 12,12.5 v 4 a 0.5,0.5 0 0 1 -1,0 z"
     id="path1" />
</svg>
