<?xml version="1.0" encoding="UTF-8" standalone="no"?>
<svg
   width="18"
   height="18"
   fill="currentColor"
   class="bi bi-layout-split"
   viewBox="0 0 18 18"
   version="1.1"
   id="svg1"
   sodipodi:docname="layout-split.svg"
   inkscape:version="1.4 (e7c3feb100, 2024-10-09)"
   xmlns:inkscape="http://www.inkscape.org/namespaces/inkscape"
   xmlns:sodipodi="http://sodipodi.sourceforge.net/DTD/sodipodi-0.dtd"
   xmlns="http://www.w3.org/2000/svg"
   xmlns:svg="http://www.w3.org/2000/svg">
  <defs
     id="defs1" />
  <sodipodi:namedview
     id="namedview1"
     pagecolor="#ffffff"
     bordercolor="#000000"
     borderopacity="0.25"
     inkscape:showpageshadow="2"
     inkscape:pageopacity="0.0"
     inkscape:pagecheckerboard="0"
     inkscape:deskcolor="#d1d1d1"
     inkscape:zoom="45.625"
     inkscape:cx="8.0109589"
     inkscape:cy="13.260274"
     inkscape:window-width="1920"
     inkscape:window-height="976"
     inkscape:window-x="0"
     inkscape:window-y="0"
     inkscape:window-maximized="1"
     inkscape:current-layer="svg1" />
  <path
     d="M 1,4 A 2,2 0 0 1 3,2 h 12 a 2,2 0 0 1 2,2 v 10 a 2,2 0 0 1 -2,2 H 3 A 2,2 0 0 1 1,14 Z M 9.5,3 V 15 H 15 a 1,1 0 0 0 1,-1 V 4 A 1,1 0 0 0 15,3 Z m -1,0 H 3 A 1,1 0 0 0 2,4 v 10 a 1,1 0 0 0 1,1 h 5.5 z"
     id="path1" />
</svg>
