<?xml version="1.0" encoding="UTF-8" standalone="no"?>
<svg
   width="18"
   height="18"
   fill="currentColor"
   class="bi bi-layout-split"
   viewBox="0 0 18 18"
   version="1.1"
   id="svg1"
   sodipodi:docname="layout-split-vertical.svg"
   inkscape:version="1.4 (e7c3feb100, 2024-10-09)"
   xmlns:inkscape="http://www.inkscape.org/namespaces/inkscape"
   xmlns:sodipodi="http://sodipodi.sourceforge.net/DTD/sodipodi-0.dtd"
   xmlns="http://www.w3.org/2000/svg"
   xmlns:svg="http://www.w3.org/2000/svg">
  <defs
     id="defs1" />
  <sodipodi:namedview
     id="namedview1"
     pagecolor="#ffffff"
     bordercolor="#000000"
     borderopacity="0.25"
     inkscape:showpageshadow="2"
     inkscape:pageopacity="0.0"
     inkscape:pagecheckerboard="0"
     inkscape:deskcolor="#d1d1d1"
     inkscape:zoom="22.8125"
     inkscape:cx="6.4657534"
     inkscape:cy="9.4684931"
     inkscape:window-width="1920"
     inkscape:window-height="976"
     inkscape:window-x="0"
     inkscape:window-y="0"
     inkscape:window-maximized="1"
     inkscape:current-layer="svg1" />
  <path
     d="m 14,1 a 2,2 0 0 1 2,2 v 12 a 2,2 0 0 1 -2,2 H 4 A 2,2 0 0 1 2,15 V 3 A 2,2 0 0 1 4,1 Z m 1,8.5 H 3 V 15 a 1,1 0 0 0 1,1 h 10 a 1,1 0 0 0 1,-1 z m 0,-1 V 3 A 1,1 0 0 0 14,2 H 4 A 1,1 0 0 0 3,3 v 5.5 z"
     id="path1" />
</svg>
