<?xml version="1.0" encoding="UTF-8" standalone="no"?>
<svg
   width="18"
   height="18"
   fill="currentColor"
   class="bi bi-list"
   viewBox="0 0 18 18"
   version="1.1"
   id="svg1"
   sodipodi:docname="list.svg"
   inkscape:version="1.3.2 (091e20e, 2023-11-25)"
   xmlns:inkscape="http://www.inkscape.org/namespaces/inkscape"
   xmlns:sodipodi="http://sodipodi.sourceforge.net/DTD/sodipodi-0.dtd"
   xmlns="http://www.w3.org/2000/svg"
   xmlns:svg="http://www.w3.org/2000/svg">
  <defs
     id="defs1" />
  <sodipodi:namedview
     id="namedview1"
     pagecolor="#505050"
     bordercolor="#eeeeee"
     borderopacity="1"
     inkscape:showpageshadow="0"
     inkscape:pageopacity="0"
     inkscape:pagecheckerboard="0"
     inkscape:deskcolor="#505050"
     inkscape:zoom="45.125"
     inkscape:cx="8.0110803"
     inkscape:cy="8.0443213"
     inkscape:window-width="1920"
     inkscape:window-height="968"
     inkscape:window-x="0"
     inkscape:window-y="0"
     inkscape:window-maximized="1"
     inkscape:current-layer="svg1" />
  <path
     fill-rule="evenodd"
     d="m 2.5001309,13.888889 a 0.59090907,0.61111111 0 0 1 0.590909,-0.611111 H 14.909222 a 0.59090907,0.61111111 0 0 1 0,1.222222 H 3.0910399 a 0.59090907,0.61111111 0 0 1 -0.590909,-0.611111 m 0,-4.8888889 A 0.59090907,0.61111111 0 0 1 3.0910399,8.3888889 H 14.909222 a 0.59090907,0.61111111 0 0 1 0,1.2222221 H 3.0910399 A 0.59090907,0.61111111 0 0 1 2.5001309,9 m 0,-4.8888887 a 0.59090907,0.61111111 0 0 1 0.590909,-0.611111 H 14.909222 a 0.59090907,0.61111111 0 0 1 0,1.222222 H 3.0910399 a 0.59090907,0.61111111 0 0 1 -0.590909,-0.611111"
     id="path1"
     style="stroke-width:1.20185" />
</svg>
