<?xml version="1.0" encoding="UTF-8" standalone="no"?>
<svg
   width="18"
   height="18"
   fill="currentColor"
   class="bi bi-pencil-square"
   viewBox="0 0 18 18"
   version="1.1"
   id="svg2"
   sodipodi:docname="pencil-square.svg"
   inkscape:version="1.4 (e7c3feb100, 2024-10-09)"
   xmlns:inkscape="http://www.inkscape.org/namespaces/inkscape"
   xmlns:sodipodi="http://sodipodi.sourceforge.net/DTD/sodipodi-0.dtd"
   xmlns="http://www.w3.org/2000/svg"
   xmlns:svg="http://www.w3.org/2000/svg">
  <defs
     id="defs2" />
  <sodipodi:namedview
     id="namedview2"
     pagecolor="#ffffff"
     bordercolor="#000000"
     borderopacity="0.25"
     inkscape:showpageshadow="2"
     inkscape:pageopacity="0.0"
     inkscape:pagecheckerboard="0"
     inkscape:deskcolor="#d1d1d1"
     inkscape:zoom="45.625"
     inkscape:cx="8.0109589"
     inkscape:cy="8"
     inkscape:window-width="1920"
     inkscape:window-height="976"
     inkscape:window-x="0"
     inkscape:window-y="0"
     inkscape:window-maximized="1"
     inkscape:current-layer="svg2" />
  <path
     d="m 16.502,2.9403932 a 0.5,0.5 0 0 1 0,0.706 l -1.043,1.044 -2,-2 1.043,-1.044 a 0.5,0.5 0 0 1 0.707,0 l 1.293,1.293 z m -1.75,2.456 -2,-2 -6.813,6.8139998 a 0.5,0.5 0 0 0 -0.121,0.196 l -0.805,2.414 a 0.25,0.25 0 0 0 0.316,0.316 l 2.414,-0.805 a 0.5,0.5 0 0 0 0.196,-0.12 l 6.813,-6.8139998 z"
     id="path1" />
  <path
     fill-rule="evenodd"
     d="m 2,14.500393 a 1.5,1.5 0 0 0 1.5,1.5 h 11 a 1.5,1.5 0 0 0 1.5,-1.5 V 8.5003932 a 0.5,0.5 0 0 0 -1,0 v 5.9999998 a 0.5,0.5 0 0 1 -0.5,0.5 h -11 a 0.5,0.5 0 0 1 -0.5,-0.5 V 3.5003932 a 0.5,0.5 0 0 1 0.5,-0.5 H 10 a 0.5,0.5 0 0 0 0,-1 H 3.5 a 1.5,1.5 0 0 0 -1.5,1.5 z"
     id="path2" />
</svg>
