<?xml version="1.0" encoding="UTF-8" standalone="no"?>
<svg
   width="18"
   height="18"
   fill="currentColor"
   class="bi bi-plus-square-fill"
   viewBox="0 0 18 18"
   version="1.1"
   id="svg1"
   sodipodi:docname="plus-square-fill.svg"
   inkscape:version="1.4 (e7c3feb100, 2024-10-09)"
   xmlns:inkscape="http://www.inkscape.org/namespaces/inkscape"
   xmlns:sodipodi="http://sodipodi.sourceforge.net/DTD/sodipodi-0.dtd"
   xmlns="http://www.w3.org/2000/svg"
   xmlns:svg="http://www.w3.org/2000/svg">
  <defs
     id="defs1" />
  <sodipodi:namedview
     id="namedview1"
     pagecolor="#ffffff"
     bordercolor="#000000"
     borderopacity="0.25"
     inkscape:showpageshadow="2"
     inkscape:pageopacity="0.0"
     inkscape:pagecheckerboard="0"
     inkscape:deskcolor="#d1d1d1"
     inkscape:zoom="45.625"
     inkscape:cx="8.0109589"
     inkscape:cy="8"
     inkscape:window-width="1920"
     inkscape:window-height="976"
     inkscape:window-x="0"
     inkscape:window-y="0"
     inkscape:window-maximized="1"
     inkscape:current-layer="svg1" />
  <path
     d="M 3,1 A 2,2 0 0 0 1,3 v 12 a 2,2 0 0 0 2,2 h 12 a 2,2 0 0 0 2,-2 V 3 A 2,2 0 0 0 15,1 Z m 6.5,4.5 v 3 h 3 a 0.5,0.5 0 0 1 0,1 h -3 v 3 a 0.5,0.5 0 0 1 -1,0 v -3 h -3 a 0.5,0.5 0 0 1 0,-1 h 3 v -3 a 0.5,0.5 0 0 1 1,0"
     id="path1" />
</svg>
