<?xml version="1.0" encoding="UTF-8" standalone="no"?>
<svg
   width="18"
   height="18"
   fill="currentColor"
   class="bi bi-download"
   viewBox="0 0 18 18"
   version="1.1"
   id="svg2"
   sodipodi:docname="download.svg"
   inkscape:version="1.4.2 (ebf0e940d0, 2025-05-08)"
   xmlns:inkscape="http://www.inkscape.org/namespaces/inkscape"
   xmlns:sodipodi="http://sodipodi.sourceforge.net/DTD/sodipodi-0.dtd"
   xmlns="http://www.w3.org/2000/svg"
   xmlns:svg="http://www.w3.org/2000/svg">
  <defs
     id="defs2" />
  <sodipodi:namedview
     id="namedview2"
     pagecolor="#ffffff"
     bordercolor="#000000"
     borderopacity="0.25"
     inkscape:showpageshadow="2"
     inkscape:pageopacity="0.0"
     inkscape:pagecheckerboard="0"
     inkscape:deskcolor="#d1d1d1"
     inkscape:zoom="45.9375"
     inkscape:cx="7.9891156"
     inkscape:cy="8"
     inkscape:window-width="1920"
     inkscape:window-height="981"
     inkscape:window-x="0"
     inkscape:window-y="0"
     inkscape:window-maximized="1"
     inkscape:current-layer="svg2" />
  <path
     d="M 1.5,10.9 A 0.5,0.5 0 0 1 2,11.4 v 2.5 a 1,1 0 0 0 1,1 h 12 a 1,1 0 0 0 1,-1 v -2.5 a 0.5,0.5 0 0 1 1,0 v 2.5 a 2,2 0 0 1 -2,2 H 3 a 2,2 0 0 1 -2,-2 v -2.5 a 0.5,0.5 0 0 1 0.5,-0.5"
     id="path1" />
  <path
     d="m 8.646,12.854 a 0.5,0.5 0 0 0 0.708,0 l 3,-3 A 0.5006316,0.5006316 0 0 0 11.646,9.146 L 9.5,11.293 V 2.5 a 0.5,0.5 0 0 0 -1,0 v 8.793 L 6.354,9.146 A 0.5006316,0.5006316 0 1 0 5.646,9.854 Z"
     id="path2" />
</svg>
