<?xml version="1.0" encoding="UTF-8" standalone="no"?>
<svg
   width="18"
   height="18"
   fill="currentColor"
   class="bi bi-send-fill"
   viewBox="0 0 18 18"
   version="1.1"
   id="svg1"
   sodipodi:docname="send-fill.svg"
   inkscape:version="1.3.2 (091e20e, 2023-11-25)"
   xmlns:inkscape="http://www.inkscape.org/namespaces/inkscape"
   xmlns:sodipodi="http://sodipodi.sourceforge.net/DTD/sodipodi-0.dtd"
   xmlns="http://www.w3.org/2000/svg"
   xmlns:svg="http://www.w3.org/2000/svg">
  <defs
     id="defs1" />
  <sodipodi:namedview
     id="namedview1"
     pagecolor="#505050"
     bordercolor="#eeeeee"
     borderopacity="1"
     inkscape:showpageshadow="0"
     inkscape:pageopacity="0"
     inkscape:pagecheckerboard="0"
     inkscape:deskcolor="#505050"
     inkscape:zoom="48.9375"
     inkscape:cx="7.9897829"
     inkscape:cy="8"
     inkscape:window-width="1920"
     inkscape:window-height="967"
     inkscape:window-x="0"
     inkscape:window-y="32"
     inkscape:window-maximized="1"
     inkscape:current-layer="svg1" />
  <path
     d="m 16.96475,1.6858059 a 0.5,0.5 0 0 0 -0.65,-0.65 l -14.5470005,5.819 h -0.001 l -0.452,0.18 a 0.5,0.5 0 0 0 -0.082,0.887 l 0.41,0.26 10e-4,0.002 4.995,3.1780001 3.178,4.995 0.002,0.002 0.2600005,0.41 a 0.5,0.5 0 0 0 0.886,-0.083 z m -1.833,1.89 -7.4940005,7.4940001 -0.215,-0.338 a 0.5,0.5 0 0 0 -0.154,-0.154 l -0.338,-0.215 7.4940005,-7.4940001 1.178,-0.471 z"
     id="path1" />
</svg>
